<svg xmlns="http://www.w3.org/2000/svg" width="40" height="40" viewBox="0 0 40 40" fill="none">
  <rect width="40" height="40" rx="20" fill="#E6F0F9"/>
  <path d="M20 10C14.48 10 10 14.48 10 20C10 25.52 14.48 30 20 30C25.52 30 30 25.52 30 20C30 14.48 25.52 10 20 10ZM20 28C15.59 28 12 24.41 12 20C12 15.59 15.59 12 20 12C24.41 12 28 15.59 28 20C28 24.41 24.41 28 20 28Z" fill="#0061A0"/>
  <path d="M20 17C18.9 17 18 16.1 18 15C18 13.9 18.9 13 20 13C21.1 13 22 13.9 22 15C22 16.1 21.1 17 20 17ZM20 15C20 15 20 15 20 15C20 15 20 15 20 15C20 15 20 15 20 15Z" fill="#0061A0"/>
  <path d="M20 25C19.45 25 19 24.55 19 24V20C19 19.45 19.45 19 20 19C20.55 19 21 19.45 21 20V24C21 24.55 20.55 25 20 25Z" fill="#0061A0"/>
</svg>