<svg xmlns="http://www.w3.org/2000/svg" id="Layer_1" data-name="Layer 1" viewBox="0 0 500 100"><defs><style>.cls-1{fill:#004247;}.cls-2{fill:#fff;}.cls-3{fill:#b5d6ce;}.cls-4{fill:#6c8b8c;}</style></defs><g><path class="cls-2" d="m136.49,42.99l-9.93-36.12-.05-.21c0-.32.2-.48.59-.48h8.11c.35,0,.59.18.69.53l4.64,19.42c.03.14.09.21.16.21s.13-.07.16-.21l4.16-19.37c.07-.39.3-.59.7-.59h7.41c.36,0,.59.18.7.53l4.64,19.42c.04.14.09.21.16.21s.12-.07.16-.21l4.32-19.37c.07-.39.3-.59.69-.59h7.9c.5,0,.7.23.59.69l-9.02,36.12c-.11.36-.36.53-.75.53h-7.63c-.39,0-.62-.2-.69-.59l-4.64-20.6c-.04-.14-.09-.21-.16-.21s-.13.07-.16.21l-4.16,20.6c-.07.39-.3.59-.69.59h-7.15c-.39,0-.64-.18-.75-.53Z"></path><path class="cls-2" d="m204.39,13.57c-.13.13-.28.19-.45.19h-16.75c-.18,0-.27.09-.27.27v6.56c0,.18.09.27.27.27h10.72c.18,0,.33.06.45.19s.19.28.19.45v6.24c0,.18-.06.33-.19.45s-.28.19-.45.19h-10.72c-.18,0-.27.09-.27.27v7.04c0,.18.09.27.27.27h16.75c.18,0,.33.06.45.19.12.13.18.27.18.45v6.29c0,.18-.06.33-.18.45s-.28.19-.45.19h-25.24c-.18,0-.33-.06-.46-.19-.13-.12-.18-.27-.18-.45V6.82c0-.18.06-.33.18-.45s.28-.19.46-.19h25.24c.18,0,.33.06.45.19.12.13.18.28.18.45v6.29c0,.18-.06.33-.18.45Z"></path><path class="cls-2" d="m211.16,43.34c-.13-.12-.18-.27-.18-.45V6.82c0-.18.06-.33.18-.45s.28-.19.46-.19h7.58c.18,0,.33.06.45.19.12.13.18.28.18.45v36.07c0,.18-.06.33-.18.45s-.28.19-.45.19h-7.58c-.18,0-.33-.06-.46-.19Z"></path><path class="cls-2" d="m250.56,24.42c3.24,1.71,4.85,4.55,4.85,8.54,0,3.56-1.23,6.21-3.68,7.95-2.45,1.75-5.67,2.62-9.66,2.62h-14.19c-.18,0-.33-.06-.46-.19-.13-.12-.18-.27-.18-.45V6.82c0-.18.06-.33.18-.45s.28-.19.46-.19h13.76c4.34,0,7.62.82,9.85,2.45,2.22,1.64,3.33,4.29,3.33,7.95s-1.42,5.99-4.27,7.52c-.21.11-.21.21,0,.32Zm-14.46-10.4v6.72c0,.18.09.27.27.27h5.28c1.46,0,2.58-.31,3.36-.93.78-.62,1.17-1.5,1.17-2.64s-.39-2.08-1.17-2.72c-.78-.64-1.9-.96-3.36-.96h-5.28c-.18,0-.27.09-.27.27Zm9.29,20.89c.78-.66,1.17-1.61,1.17-2.85s-.38-2.14-1.15-2.8c-.77-.66-1.88-.99-3.33-.99h-5.71c-.18,0-.27.09-.27.27v7.1c0,.18.09.27.27.27h5.71c1.42,0,2.52-.33,3.31-.99Z"></path><path class="cls-2" d="m288.63,13.57c-.13.13-.28.19-.45.19h-16.75c-.18,0-.27.09-.27.27v6.56c0,.18.09.27.27.27h10.73c.18,0,.33.06.45.19s.19.28.19.45v6.24c0,.18-.06.33-.19.45s-.28.19-.45.19h-10.73c-.18,0-.27.09-.27.27v7.04c0,.18.09.27.27.27h16.75c.18,0,.33.06.45.19s.19.27.19.45v6.29c0,.18-.06.33-.19.45-.13.13-.28.19-.45.19h-25.24c-.18,0-.33-.06-.45-.19-.13-.12-.19-.27-.19-.45V6.82c0-.18.06-.33.19-.45s.28-.19.45-.19h25.24c.18,0,.33.06.45.19s.19.28.19.45v6.29c0,.18-.06.33-.19.45Z"></path><path class="cls-2" d="m295.41,43.34c-.13-.12-.19-.27-.19-.45V6.82c0-.18.06-.33.19-.45s.28-.19.45-.19h7.58c.18,0,.33.06.45.19s.19.28.19.45v28.86c0,.18.09.27.27.27h17.02c.18,0,.33.06.46.19.12.13.18.27.18.45v6.29c0,.18-.06.33-.18.45s-.28.19-.46.19h-25.5c-.18,0-.33-.06-.45-.19Z"></path><path class="cls-2" d="m128.14,91.36c-.13-.12-.18-.27-.18-.45v-36.07c0-.18.06-.33.18-.45s.28-.19.46-.19h7.58c.18,0,.33.06.45.19.12.13.18.28.18.45v36.07c0,.18-.06.33-.18.45s-.28.19-.45.19h-7.58c-.18,0-.33-.06-.46-.19Z"></path><path class="cls-2" d="m165.6,54.38c.12-.13.27-.19.45-.19h7.58c.18,0,.33.06.45.19s.19.28.19.45v36.07c0,.18-.06.33-.19.45-.13.13-.28.19-.45.19h-7.26c-.35,0-.6-.14-.75-.43l-12.27-20.38c-.07-.11-.14-.15-.21-.13-.07.02-.11.1-.11.24l.05,20.06c0,.18-.06.33-.19.45-.13.13-.28.19-.45.19h-7.58c-.18,0-.33-.06-.45-.19-.13-.12-.19-.27-.19-.45v-36.07c0-.18.06-.33.19-.45s.28-.19.45-.19h7.31c.35,0,.6.14.75.43l12.22,20.33c.07.11.14.15.21.13.07-.02.11-.1.11-.24l-.05-20.01c0-.18.06-.33.19-.45Z"></path><path class="cls-2" d="m187.52,90.56c-2.19-.94-3.88-2.3-5.07-4.05-1.19-1.76-1.79-3.8-1.79-6.11v-1.01c0-.18.06-.33.18-.46.13-.12.28-.18.45-.18h7.42c.18,0,.33.06.45.18.13.13.19.28.19.46v.64c0,1.17.59,2.2,1.76,3.07,1.17.87,2.76,1.31,4.75,1.31,1.57,0,2.72-.34,3.47-1.01.75-.68,1.12-1.46,1.12-2.35,0-.71-.22-1.29-.67-1.73-.45-.45-1.04-.82-1.79-1.12-.75-.3-1.9-.72-3.47-1.26-.21-.1-.42-.18-.64-.24-.21-.05-.41-.11-.59-.18-2.31-.75-4.32-1.56-6.03-2.43-1.71-.87-3.17-2.08-4.37-3.63-1.21-1.55-1.82-3.46-1.82-5.73s.58-4.14,1.74-5.79c1.16-1.65,2.77-2.92,4.83-3.81,2.06-.89,4.39-1.33,6.99-1.33,2.74,0,5.2.5,7.39,1.5s3.9,2.4,5.15,4.22c1.25,1.81,1.87,3.89,1.87,6.24v.75c0,.18-.06.33-.19.45-.13.13-.28.19-.45.19h-7.41c-.18,0-.33-.06-.46-.19-.13-.12-.18-.27-.18-.45v-.37c0-1.25-.55-2.35-1.65-3.31-1.1-.96-2.58-1.44-4.43-1.44-1.39,0-2.47.29-3.25.85-.78.57-1.17,1.37-1.17,2.4,0,.78.25,1.43.75,1.95s1.27,1,2.32,1.44c1.05.45,2.66,1.02,4.83,1.74,2.49.85,4.43,1.6,5.82,2.24,1.39.64,2.69,1.68,3.92,3.12s1.84,3.33,1.84,5.68-.59,4.3-1.76,5.98c-1.17,1.67-2.82,2.96-4.94,3.87-2.12.91-4.58,1.36-7.39,1.36-2.95,0-5.52-.47-7.71-1.41Z"></path><path class="cls-2" d="m243.01,54.38c.12.13.18.28.18.45v6.35c0,.18-.06.33-.18.45-.13.13-.28.19-.45.19h-9.34c-.18,0-.27.09-.27.27v28.81c0,.18-.06.33-.18.45s-.28.19-.46.19h-7.58c-.18,0-.33-.06-.45-.19-.13-.12-.18-.27-.18-.45v-28.81c0-.18-.09-.27-.27-.27h-9.02c-.18,0-.33-.06-.45-.19s-.19-.28-.19-.45v-6.35c0-.18.06-.33.19-.45s.28-.19.45-.19h27.75c.18,0,.33.06.45.19Z"></path><path class="cls-2" d="m269.24,91.01l-1.39-4.75c-.07-.14-.16-.21-.27-.21h-12.16c-.11,0-.2.07-.27.21l-1.39,4.75c-.11.36-.36.53-.75.53h-8.16c-.21,0-.38-.06-.48-.19-.11-.12-.13-.31-.05-.56l11.42-36.07c.11-.36.34-.53.7-.53h10.08c.36,0,.59.18.7.53l11.47,36.07c.03.07.05.16.05.27,0,.32-.2.48-.59.48h-8.16c-.39,0-.64-.18-.75-.53Zm-11.74-11.79h7.95c.21,0,.28-.11.21-.32l-4.06-13.71c-.03-.14-.09-.21-.16-.19-.07.02-.13.08-.16.19l-4,13.71c-.03.21.04.32.21.32Z"></path><path class="cls-2" d="m284.95,91.36c-.13-.12-.19-.27-.19-.45v-36.07c0-.18.06-.33.19-.45s.28-.19.45-.19h7.58c.18,0,.33.06.45.19s.19.28.19.45v28.86c0,.18.09.27.27.27h17.02c.18,0,.33.06.46.19.12.13.18.27.18.45v6.29c0,.18-.06.33-.18.45s-.28.19-.46.19h-25.5c-.18,0-.33-.06-.45-.19Z"></path><path class="cls-2" d="m317.66,91.36c-.13-.12-.19-.27-.19-.45v-36.07c0-.18.06-.33.19-.45s.28-.19.45-.19h7.58c.18,0,.33.06.45.19s.19.28.19.45v28.86c0,.18.09.27.27.27h17.02c.18,0,.33.06.46.19.12.13.18.27.18.45v6.29c0,.18-.06.33-.18.45s-.28.19-.46.19h-25.5c-.18,0-.33-.06-.45-.19Z"></path><path class="cls-2" d="m374.24,91.01l-1.39-4.75c-.07-.14-.16-.21-.27-.21h-12.16c-.11,0-.2.07-.27.21l-1.39,4.75c-.11.36-.36.53-.75.53h-8.16c-.21,0-.38-.06-.48-.19-.11-.12-.13-.31-.05-.56l11.42-36.07c.11-.36.34-.53.7-.53h10.08c.36,0,.59.18.7.53l11.47,36.07c.03.07.05.16.05.27,0,.32-.2.48-.59.48h-8.16c-.39,0-.64-.18-.75-.53Zm-11.74-11.79h7.95c.21,0,.28-.11.21-.32l-4.06-13.71c-.03-.14-.09-.21-.16-.19-.07.02-.13.08-.16.19l-4,13.71c-.03.21.04.32.21.32Z"></path><path class="cls-2" d="m412.26,54.38c.12.13.18.28.18.45v6.35c0,.18-.06.33-.18.45-.13.13-.28.19-.45.19h-9.34c-.18,0-.27.09-.27.27v28.81c0,.18-.06.33-.18.45s-.28.19-.46.19h-7.58c-.18,0-.33-.06-.45-.19-.13-.12-.18-.27-.18-.45v-28.81c0-.18-.09-.27-.27-.27h-9.02c-.18,0-.33-.06-.45-.19s-.19-.28-.19-.45v-6.35c0-.18.06-.33.19-.45s.28-.19.45-.19h27.75c.18,0,.33.06.45.19Z"></path><path class="cls-2" d="m418.61,91.36c-.13-.12-.19-.27-.19-.45v-36.07c0-.18.06-.33.19-.45s.28-.19.45-.19h7.58c.18,0,.33.06.45.19s.19.28.19.45v36.07c0,.18-.06.33-.19.45-.13.13-.28.19-.45.19h-7.58c-.18,0-.33-.06-.45-.19Z"></path><path class="cls-2" d="m441.02,90.4c-2.19-1.16-3.89-2.78-5.1-4.88-1.21-2.1-1.82-4.54-1.82-7.31v-10.67c0-2.7.6-5.1,1.82-7.18,1.21-2.08,2.91-3.7,5.1-4.85,2.19-1.16,4.72-1.74,7.6-1.74s5.42.58,7.63,1.74c2.21,1.16,3.91,2.77,5.12,4.85,1.21,2.08,1.81,4.48,1.81,7.18v10.67c0,2.77-.6,5.21-1.81,7.31-1.21,2.1-2.92,3.73-5.12,4.88-2.2,1.15-4.75,1.73-7.63,1.73s-5.42-.58-7.6-1.73Zm11.74-7.5c1.05-1.1,1.57-2.58,1.57-4.43v-11.04c0-1.81-.52-3.28-1.57-4.4-1.05-1.12-2.43-1.68-4.13-1.68s-3.03.56-4.08,1.68c-1.05,1.12-1.57,2.59-1.57,4.4v11.04c0,1.85.52,3.33,1.57,4.43,1.05,1.1,2.41,1.65,4.08,1.65s3.08-.55,4.13-1.65Z"></path><path class="cls-2" d="m491.33,54.38c.12-.13.27-.19.45-.19h7.58c.18,0,.33.06.45.19s.19.28.19.45v36.07c0,.18-.06.33-.19.45-.13.13-.28.19-.45.19h-7.26c-.36,0-.61-.14-.75-.43l-12.27-20.38c-.07-.11-.14-.15-.21-.13-.07.02-.11.1-.11.24l.05,20.06c0,.18-.06.33-.18.45s-.28.19-.46.19h-7.58c-.18,0-.33-.06-.45-.19-.13-.12-.18-.27-.18-.45v-36.07c0-.18.06-.33.18-.45s.28-.19.45-.19h7.31c.35,0,.6.14.75.43l12.22,20.33c.07.11.14.15.21.13.07-.02.11-.1.11-.24l-.05-20.01c0-.18.06-.33.19-.45Z"></path></g><g><circle class="cls-4" cx="49.15" cy="49.15" r="49.15"></circle><g><path class="cls-3" d="m28.18,21.69c-.89-1.56.22-3.5,2.02-3.52,5.58-.07,10.22-.23,14.79.24,1.78.18,3.75,2.63,4.87,4.49,6.12,10.16,11.98,20.47,17.96,30.71,1.06,1.82,2.24,3.57,3.8,6.04,4.75-8.97-.79-15.2-4.59-19.86l16.5.41c1.82,0,2.95,1.98,2.03,3.55-6.96,11.88-13.55,23.15-20.57,35.14-.91,1.56-3.18,1.56-4.08-.01L28.18,21.69Z"></path><path class="cls-1" d="m12.69,42.97c-.8-1.39.2-3.13,1.81-3.14,5.67-.03,10.38-.09,15.09.12,1.29.06,2.98,1.26,3.69,2.43,3.91,6.41,7.65,12.94,11.26,19.53.57,1.04.7,2.86.16,3.86-2.27,4.29-4.73,8.48-7.58,13.41-.81,1.39-2.83,1.4-3.63,0-7-12.19-13.61-23.69-20.8-36.21Z"></path></g></g></svg>